# xmcd CD database file
#
# Track frame offsets:
#	150
#	22165
#	42985
#	59871
#	87703
#	105275
#	120067
#	137824
#	153310
#	171403
#	184724
#	206301
#	227809
#	237831
#	254874
#	276427
#	288883
#	307246
#	326089
#
# Disc length: 4551 seconds
#
# Revision: 0
# Processed by: cddbd v1.5.2PL0 Copyright (c) Steve Scherf et al.
# Submitted via: CDex 1.51
#
DISCID=2011c513
DTITLE=Various Artist - Hendrix in Jazz
DYEAR=2017
DGENRE=Jazz
TTITLE0=TEREZ MONTCALM - Voodoo Child
TTITLE1=YOUN SUN NAH - Drifting 
TTITLE2=FRANCIS LOCKWOOD TRIO - All Along the Watchtower
TTITLE3=LEE MOSES - Hey Joe
TTITLE4=HE NGUYEN LE TRIO - Little wing 
TTITLE5=MINA AGOSSI  - Burning on the Midnight Lamp
TTITLE6=FRANCIS LOCKWOOD TRIO - Third Stone From the Sun
TTITLE7=IDA SAND - Manic Depression 
TTITLE8=Joachim Kühn - Purple Haze 
TTITLE9=DENIS COLIN TRIO - Crosstown Traffic
TTITLE10=LOUIS WINSBERG - Gypsy eyes
TTITLE11=MINA AGOSSI - Spanish Castle Magic
TTITLE12=GERI ALLEN - Message to Love
TTITLE13=NGUYEN LE - Up From the skies 
TTITLE14=FRANCIS LOCKWOOD TRIO - The Wind Cries Mary
TTITLE15=MINA AGOSSI - Red House
TTITLE16=GERI ALLEN - Little Wing
TTITLE17=WILLY DEVILLE - Hey Joe 
TTITLE18=POPA CHUBBY- Purple haze
EXTD=YEAR: 2017
EXTT0=
EXTT1=
EXTT2=
EXTT3=
EXTT4=
EXTT5=
EXTT6=
EXTT7=
EXTT8=
EXTT9=
EXTT10=
EXTT11=
EXTT12=
EXTT13=
EXTT14=
EXTT15=
EXTT16=
EXTT17=
EXTT18=
PLAYORDER=
